<?xml version="1.0" encoding="UTF-8" standalone="no"?>
<svg
   xmlns:dc="http://purl.org/dc/elements/1.1/"
   xmlns:cc="http://creativecommons.org/ns#"
   xmlns:rdf="http://www.w3.org/1999/02/22-rdf-syntax-ns#"
   xmlns:svg="http://www.w3.org/2000/svg"
   xmlns="http://www.w3.org/2000/svg"
   xmlns:sodipodi="http://sodipodi.sourceforge.net/DTD/sodipodi-0.dtd"
   xmlns:inkscape="http://www.inkscape.org/namespaces/inkscape"
   viewBox="0 0 612 612"
   focusable="false"
   role="img"
   version="1.1"
   id="svg8"
   sodipodi:docname="garabatos-solid.svg"
   inkscape:version="0.92.4 (5da689c313, 2019-01-14)"
   inkscape:export-filename="C:\Users\jufra\Desktop\path825.png"
   inkscape:export-xdpi="150.005"
   inkscape:export-ydpi="150.005">
  <metadata
     id="metadata14">
    <rdf:RDF>
      <cc:Work
         rdf:about="">
        <dc:format>image/svg+xml</dc:format>
        <dc:type
           rdf:resource="http://purl.org/dc/dcmitype/StillImage" />
        <dc:title>Bootstrap</dc:title>
      </cc:Work>
    </rdf:RDF>
  </metadata>
  <defs
     id="defs12" />
  <sodipodi:namedview
     pagecolor="#ffffff"
     bordercolor="#666666"
     borderopacity="1"
     objecttolerance="10"
     gridtolerance="10"
     guidetolerance="10"
     inkscape:pageopacity="0"
     inkscape:pageshadow="2"
     inkscape:window-width="1920"
     inkscape:window-height="1051"
     id="namedview10"
     showgrid="false"
     inkscape:snap-global="true"
     showguides="true"
     inkscape:guide-bbox="true"
     inkscape:zoom="0.38562092"
     inkscape:cx="324.81108"
     inkscape:cy="53.97743"
     inkscape:window-x="-9"
     inkscape:window-y="-9"
     inkscape:window-maximized="1"
     inkscape:current-layer="svg8" />
  <title
     id="title2">Bootstrap</title>
  <path
     style="opacity:1;fill:#e1c6ec;fill-opacity:1;stroke:none;stroke-width:1;stroke-linecap:round;stroke-linejoin:round;stroke-miterlimit:10;stroke-dasharray:none;stroke-opacity:1;paint-order:stroke fill markers"
     d="m 306.1244,114.14054 c -105.96099,-2.5e-4 -191.85964,85.89772 -191.86021,191.85871 -2.5e-4,105.96156 85.89864,191.86044 191.86021,191.86021 58.29117,-0.0557 110.61096,-26.13788 145.80266,-67.36209 v 34.05917 h 45.80875 V 310.9451 H 351.61578 v 51.42638 h 42.52684 c 0,0 -27.12245,46.48058 -81.09553,46.48058 -53.97307,0 -108.99042,-33.16532 -108.99042,-102.82897 0,-69.66362 57.57999,-130.56743 140.89711,-130.56743 69.45309,0 121.11139,33.31948 148.12221,88.50537 -19.64829,-87.49258 -97.28,-149.7056 -186.95159,-149.82049 z"
     id="path4539"
     inkscape:connector-curvature="0"
     sodipodi:nodetypes="ccccccccccssscc" />
  <g
     id="g832"
     transform="matrix(0.91814904,0,0,0.9182945,25.000001,23.915356)"
     style="stroke-width:1.0890615">
    <path
       style="fill:none;fill-opacity:0.5;stroke:#7b1fa2;stroke-width:54.45307636;stroke-miterlimit:4;stroke-dasharray:none;stroke-opacity:1"
       id="path4"
       d="m 612,510 c 0,56.1 -45.9,102 -102,102 H 102 C 45.9,612 0,566.1 0,510 V 102 C 0,45.9 45.9,0 102,0 h 408 c 56.1,0 102,45.9 102,102 z"
       inkscape:connector-curvature="0" />
    <path
       sodipodi:nodetypes="zczcczczcccczc"
       inkscape:connector-curvature="0"
       id="path825"
       d="m 319.6884,129.61594 c -89.34258,0 -184.65389,84.54486 -99.48432,207.7366 -7.60443,-95.81578 44.277,-132.45326 106.32556,-132.45326 62.04855,0 92.01327,35.73938 92.01327,35.73938 l 44.10806,-59.31291 c 0,0 -53.61998,-51.70981 -142.96257,-51.70981 z M 135.66043,303.75523 c 0,149.81918 83.0816,204.56102 190.86921,204.56102 107.78761,0 149.80991,-62.35841 149.80991,-62.35841 V 317.44382 h -83.65107 v 100.37869 c 0,0 -31.37814,21.29265 -80.60557,21.29265 -49.22741,0 -136.87945,-14.44954 -176.42248,-135.35993 z"
       style="fill:#7b1fa2;fill-opacity:1;stroke:none;stroke-width:1.08906126px;stroke-linecap:butt;stroke-linejoin:miter;stroke-opacity:1" />
  </g>
</svg>
